<svg xmlns="http://www.w3.org/2000/svg" viewBox="0 0 239.46 42.28"><defs><style>@font-face {font-family: 'MuseoSans500';src: url('../fonts/MuseoSans-500.eot');src: url('../fonts/MuseoSans-500.eot?#iefix') format('embedded-opentype'),url('../fonts/MuseoSans-500.woff') format('woff'),url('../fonts/MuseoSans-500.ttf') format('truetype'),url('../fonts/MuseoSans-500.svg#MuseoSans-500') format('svg');font-weight: normal;font-style: normal;}</style><style>.cls-1{fill:#fff;}.cls-2{fill:#282828;}.cls-3{fill:#7db542;}.cls-4{fill:#009ed8;}.cls-5{fill:#8fc200;}.cls-6{fill:#de0f42;}.cls-7{font-size:14.03px;fill:#9c0;font-family:MuseoSans500;}.cls-8{letter-spacing:-0.02em;}.cls-9{letter-spacing:0em;}</style></defs><title>logo</title><g id="Logo" data-name="Logo"><g id="WEBSITE"><g id="desktop"><g id="menu"><path class="cls-1" d="M120.55,20.59v-8h-8v8h-6V.59h6v7h8v-7h6v20Z"/><path class="cls-1" d="M50.55,20.59v-15h-5v-5h17v5h-6v15Z"/><path class="cls-1" d="M65.55,20.59V.59h15v5h-9v2h9v6h-9v2h9v5Z"/><path class="cls-1" d="M83.31,10.56C83.31,4.25,88.15,0,94.55,0a9.52,9.52,0,0,1,9.27,5.94L98.5,8.42a4.33,4.33,0,0,0-3.95-3,4.88,4.88,0,0,0-5,5.11,4.88,4.88,0,0,0,5,5.11,4.33,4.33,0,0,0,3.95-3l5.33,2.45a9.64,9.64,0,0,1-9.27,6C88.15,21.12,83.31,16.83,83.31,10.56Z"/><path class="cls-1" d="M155.91,10.56C155.91,4.29,160.78,0,167.09,0s11.17,4.29,11.17,10.56-4.87,10.56-11.17,10.56S155.91,16.83,155.91,10.56Zm16.07,0a4.9,4.9,0,1,0-9.79,0,4.9,4.9,0,1,0,9.79,0Z"/><path class="cls-1" d="M192.26,20.59l-2.63-6h-2.09v6h-6V.59h10.57c4.63,0,7.13,3.12,7.13,6.87a6.45,6.45,0,0,1-3.56,6.06l3.59,7.08Zm.69-13.51c0-1-.91-1.49-1.89-1.49h-3.52v3h3.52C192,8.59,192.95,8.13,192.95,7.07Z"/><path class="cls-1" d="M202.55,20.59V.59h6v15h8v5Z"/><path class="cls-1" d="M219.55,20.59V.59h8.94c6.3,0,11,3.6,11,10s-4.68,10-10.94,10Zm15.16-10c0-2.86-1.65-5-5.08-5h-3.08v10h3A4.89,4.89,0,0,0,234.71,10.57Z"/><g id="_Group_" data-name="&lt;Group&gt;"><g id="_Group_2" data-name="&lt;Group&gt;"><path id="_Compound_Path_" data-name="&lt;Compound Path&gt;" class="cls-1" d="M41.5,18.59l-1-2h.37l-.51-1h-1.2l-.85-1.65A6.66,6.66,0,0,0,42,7.68C42,3.81,39.41.59,34.57.59h-11v15h1v1h0v2h1v2h5v-2h0v-2h-1v-1h1v-1H33l.38,1h.08l.39.88h0l.93,2.12H35l.88,2H43l-1-2Zm-11-10v-3h3.52c1,0,1.89.46,1.89,1.49S35,8.59,34.06,8.59Z"/><polygon id="_Path_" data-name="&lt;Path&gt;" class="cls-1" points="20.55 15.59 21.55 15.59 21.55 0.59 14.55 0.59 14.55 7.59 7.55 7.59 7.55 0.59 1.55 0.59 1.55 15.59 0.55 15.59 0.55 16.59 2.55 16.59 2.55 18.59 1.55 18.59 1.55 20.59 7.55 20.59 7.55 18.59 8.55 18.59 8.55 16.59 6.55 16.59 6.55 15.59 7.55 15.59 7.55 13.59 14.55 13.59 14.55 15.59 14.55 15.59 14.55 16.59 15.55 16.59 15.55 18.59 14.55 18.59 14.55 20.59 20.55 20.59 20.55 18.59 21.55 18.59 21.55 16.59 20.55 16.59 20.55 15.59"/></g></g><path class="cls-2" d="M143.64,10.57"/><path class="cls-3" d="M120,12.95"/><polyline class="cls-4" points="141.71 10.4 144.81 20.59 144.81 20.59 138.55 20.59"/><polyline class="cls-5" points="135.48 10.77 132.39 0.59 132.39 0.59 138.55 0.59"/><polyline class="cls-6" points="147.95 10.77 144.86 0.59 144.86 0.59 150.55 0.59"/><text class="cls-7" transform="translate(0 39.33)"><tspan class="cls-8">L</tspan><tspan class="cls-9" x="7.16" y="0">ONDON </tspan><tspan class="cls-1" x="65.4" y="0">21-22 MARCH 2017</tspan></text></g></g></g></g></svg>


