<svg xmlns="http://www.w3.org/2000/svg" viewBox="0 0 93.62 33.18"><defs><style>.cls-1{fill:#fff;}</style></defs><title>avature</title><g id="Layer_2" data-name="Layer 2"><g id="WEBSITE"><g id="desktop"><path class="cls-1" d="M21.38,19.55l-2.21-5.84h-8L9,19.55H6.25L13.89,0h2.66l7.64,19.55ZM15.17,3.15l-3.11,8.2h6.22ZM29.51,19.59h-2.4L22.28,6.1h2.66l3.45,10.45L31.76,6.1h2.58Zm13.67,0-.3-1.8a5.26,5.26,0,0,1-4,2.1A3.57,3.57,0,0,1,35,16.1c0-3,2.4-4.53,7.75-5.06v-.79c0-1.69-1-2.28-2.58-2.28A8.7,8.7,0,0,0,35.8,9.32l-.15-2.21a10.57,10.57,0,0,1,4.68-1.27c3.26,0,4.87,1.31,4.87,4.31v9.4Zm-.49-6.63c-4.72.49-5.24,2.06-5.24,3a1.85,1.85,0,0,0,2,1.8c1.27,0,2.13-.75,3.26-1.87ZM53,17.68A2.43,2.43,0,0,1,51.12,17c-.64-.71-.64-1.27-.64-2.51V8.16h3.74L54,6.1H50.48V1.35l-2.32.37V6.1H46.21V8.16h1.95v6.25c0,2.13.3,2.81.64,3.37a4.06,4.06,0,0,0,3.56,1.76,7,7,0,0,0,1.87-.3l-.15-1.8a3,3,0,0,1-1.09.22M75.12,5.92c-1.91-.37-3.22.71-4.38,2.32l-.3-2.17h-2.1V19.55h2.4V10.94a5.18,5.18,0,0,1,2.7-2.51,3.27,3.27,0,0,1,2,0s-.3-2.51-.34-2.51M87.37,17.79a8.34,8.34,0,0,1-5.21,2A5.61,5.61,0,0,1,77.86,18C76.21,16.29,76,13.74,76,12.28,76,8.46,78.38,6,81.83,6a5.65,5.65,0,0,1,5.36,5.24,14,14,0,0,1,.07,2.06H78.53c.07,1.76,1,4.16,3.6,4.16A8.57,8.57,0,0,0,86.69,16Zm-2.55-6.44c0-.52-.37-3.18-3-3.18a3,3,0,0,0-2.36,1.09,3.49,3.49,0,0,0-.86,2.1Zm-20.9,8.2-.3-1.5a5.29,5.29,0,0,1-3.74,1.76A4.07,4.07,0,0,1,56.4,17.9c-.37-.6-.67-1.27-.67-3.45V6.07h2.36v8.39c0,1.27,0,1.91.64,2.62a2.45,2.45,0,0,0,1.87.75,4.6,4.6,0,0,0,3-1.87V6.07h2.4V19.55Z"/><path class="cls-1" d="M3.22,27.53H5.47v3.18a10.62,10.62,0,0,1-1,.26A6.45,6.45,0,0,1,3.18,31a3,3,0,0,1-2.32-.9A3.27,3.27,0,0,1,0,27.67a4,4,0,0,1,.41-1.8,2.57,2.57,0,0,1,1.2-1.16,4,4,0,0,1,1.8-.41,4.75,4.75,0,0,1,1.95.37l-.3.67A4.22,4.22,0,0,0,3.33,25a2.43,2.43,0,0,0-1.87.71,2.77,2.77,0,0,0-.67,2,2.91,2.91,0,0,0,.64,2,2.62,2.62,0,0,0,1.95.67,5.5,5.5,0,0,0,1.35-.15v-2H3.22Z"/><path class="cls-1" d="M9,31a2.26,2.26,0,0,1-1.72-.67,2.6,2.6,0,0,1-.64-1.84,2.68,2.68,0,0,1,.6-1.87A2,2,0,0,1,8.8,26a1.87,1.87,0,0,1,1.46.6,2.26,2.26,0,0,1,.52,1.61v.49H7.38A1.8,1.8,0,0,0,7.83,30,1.5,1.5,0,0,0,9,30.41a4,4,0,0,0,1.57-.34v.67c-.26.11-.52.19-.75.26S9.32,31,9,31M8.8,26.59a1.14,1.14,0,0,0-.94.37A1.8,1.8,0,0,0,7.45,28H10A1.78,1.78,0,0,0,9.74,27a1.24,1.24,0,0,0-.94-.37"/><path class="cls-1" d="M13.67,30.45a1.14,1.14,0,0,0,.37,0c.11,0,.22,0,.3-.07v.56A1.53,1.53,0,0,1,14,31a1.68,1.68,0,0,1-.41,0c-.94,0-1.42-.49-1.42-1.5V26.63h-.71v-.37l.71-.3.3-1h.45V26h1.42v.56H12.88v2.88a.92.92,0,0,0,.22.67.84.84,0,0,0,.56.3"/><polygon class="cls-1" points="21.5 30.97 17.83 30.97 17.83 24.38 21.5 24.38 21.5 25.05 18.61 25.05 18.61 27.15 21.35 27.15 21.35 27.82 18.61 27.82 18.61 30.22 21.5 30.22 21.5 30.97"/><path class="cls-1" d="M26.21,31V27.79a1,1,0,0,0-1.16-1.2,1.41,1.41,0,0,0-1.12.41,2.19,2.19,0,0,0-.37,1.39V31h-.75V26h.6l.11.67h.07a1.86,1.86,0,0,1,.64-.56,1.9,1.9,0,0,1,.94-.19,2,2,0,0,1,1.35.41A1.87,1.87,0,0,1,27,27.75V31Z"/><path class="cls-1" d="M32.51,26v.49l-.9.11a2,2,0,0,1,.22.41,1.5,1.5,0,0,1,.11.56,1.45,1.45,0,0,1-.49,1.16,2,2,0,0,1-1.35.45,1.39,1.39,0,0,1-.41,0,.75.75,0,0,0-.49.64.3.3,0,0,0,.15.3,1.05,1.05,0,0,0,.56.11h.86a2,2,0,0,1,1.24.34,1.13,1.13,0,0,1,.41,1,1.33,1.33,0,0,1-.67,1.24,3.45,3.45,0,0,1-1.91.41,2.54,2.54,0,0,1-1.5-.37,1.15,1.15,0,0,1-.52-1,1.21,1.21,0,0,1,.3-.79,1.36,1.36,0,0,1,.82-.45,1,1,0,0,1-.3-.26.84.84,0,0,1,0-.9,1.49,1.49,0,0,1,.45-.37,1.72,1.72,0,0,1-.64-.52,1.64,1.64,0,0,1-.22-.86,1.56,1.56,0,0,1,.49-1.24A2,2,0,0,1,30.15,26a4.11,4.11,0,0,1,.71.07h1.65m-3.93,5.77a.64.64,0,0,0,.34.6,1.79,1.79,0,0,0,1,.22,2.67,2.67,0,0,0,1.39-.26.87.87,0,0,0,.45-.75.59.59,0,0,0-.26-.56,1.84,1.84,0,0,0-.94-.15h-.9a1.23,1.23,0,0,0-.79.22.8.8,0,0,0-.26.67M29,27.6a1.07,1.07,0,0,0,.3.79,1.09,1.09,0,0,0,.82.26c.71,0,1.09-.34,1.09-1a1,1,0,0,0-1.09-1.12,1.17,1.17,0,0,0-.82.3,1.1,1.1,0,0,0-.3.82"/><path class="cls-1" d="M36.55,31l-.15-.71h0a1.78,1.78,0,0,1-1.65.79,1.67,1.67,0,0,1-1.16-.37,1.44,1.44,0,0,1-.41-1.09c0-1,.79-1.5,2.4-1.57l.82,0v-.26a1.19,1.19,0,0,0-.26-.86,1,1,0,0,0-.79-.26,3.09,3.09,0,0,0-1.39.37l-.22-.6a2.85,2.85,0,0,1,.79-.3,3.4,3.4,0,0,1,.86-.11,1.89,1.89,0,0,1,1.31.37,1.55,1.55,0,0,1,.41,1.24v3.37h-.52Zm-1.69-.52A1.48,1.48,0,0,0,36,30.07,1.44,1.44,0,0,0,36.36,29v-.45l-.75,0a3.1,3.1,0,0,0-1.27.26.79.79,0,0,0-.37.75.66.66,0,0,0,.26.6.69.69,0,0,0,.64.26"/><path class="cls-1" d="M42.65,26v.49l-.9.11A2,2,0,0,1,42,27a1.5,1.5,0,0,1,.11.56,1.45,1.45,0,0,1-.49,1.16,2,2,0,0,1-1.35.45,1.39,1.39,0,0,1-.41,0,.75.75,0,0,0-.49.64.3.3,0,0,0,.15.3,1.05,1.05,0,0,0,.56.11h.86a2,2,0,0,1,1.24.34,1.13,1.13,0,0,1,.41,1,1.33,1.33,0,0,1-.67,1.24,3.45,3.45,0,0,1-1.91.41,2.54,2.54,0,0,1-1.5-.37,1.15,1.15,0,0,1-.52-1,1.21,1.21,0,0,1,.3-.79,1.36,1.36,0,0,1,.82-.45,1,1,0,0,1-.3-.26.84.84,0,0,1,0-.9,1.49,1.49,0,0,1,.45-.37,1.72,1.72,0,0,1-.64-.52,1.64,1.64,0,0,1-.22-.86,1.56,1.56,0,0,1,.49-1.24A2,2,0,0,1,40.3,26,4.11,4.11,0,0,1,41,26h1.65m-3.93,5.77a.64.64,0,0,0,.34.6,1.79,1.79,0,0,0,1,.22,2.67,2.67,0,0,0,1.39-.26.87.87,0,0,0,.45-.75.59.59,0,0,0-.26-.56,1.84,1.84,0,0,0-.94-.15h-.9a1.23,1.23,0,0,0-.79.22.8.8,0,0,0-.26.67m.41-4.19a1.07,1.07,0,0,0,.3.79,1.09,1.09,0,0,0,.82.26c.71,0,1.09-.34,1.09-1a1,1,0,0,0-1.09-1.12,1.17,1.17,0,0,0-.82.3,1.1,1.1,0,0,0-.3.82"/><path class="cls-1" d="M45.73,31A2.26,2.26,0,0,1,44,30.37a2.6,2.6,0,0,1-.64-1.84,2.68,2.68,0,0,1,.6-1.87A2,2,0,0,1,45.54,26a1.87,1.87,0,0,1,1.46.6,2.26,2.26,0,0,1,.52,1.61v.49H44.11A1.8,1.8,0,0,0,44.56,30a1.5,1.5,0,0,0,1.16.45,4,4,0,0,0,1.57-.34v.67c-.26.11-.52.19-.75.26s-.49,0-.82,0m-.19-4.46a1.14,1.14,0,0,0-.94.37A1.8,1.8,0,0,0,44.19,28h2.58a1.78,1.78,0,0,0-.3-1.09,1.24,1.24,0,0,0-.94-.37"/><path class="cls-1" d="M52.17,30.3h0a2,2,0,0,1-3,.07,2.79,2.79,0,0,1-.52-1.87,3,3,0,0,1,.52-1.87,2,2,0,0,1,3,0h.08l0-.34V24h.75v7h-.6Zm-1.5.11A1.47,1.47,0,0,0,51.79,30a2.08,2.08,0,0,0,.34-1.35V28.5a2.52,2.52,0,0,0-.34-1.5,1.32,1.32,0,0,0-1.12-.45,1.15,1.15,0,0,0-1,.52,2.58,2.58,0,0,0-.34,1.42,2.49,2.49,0,0,0,.34,1.42,1.12,1.12,0,0,0,1,.49"/><path class="cls-1" d="M58.42,30.45a1.14,1.14,0,0,0,.37,0c.11,0,.22,0,.3-.07v.56a1.53,1.53,0,0,1-.37.11,1.68,1.68,0,0,1-.41,0c-.94,0-1.42-.49-1.42-1.5V26.63h-.71v-.37l.71-.3.3-1h.45V26h1.42v.56H57.63v2.88a.92.92,0,0,0,.22.67.71.71,0,0,0,.56.3"/><path class="cls-1" d="M64.34,28.5a2.68,2.68,0,0,1-.6,1.87,2.17,2.17,0,0,1-1.69.67,2.32,2.32,0,0,1-1.16-.3,2.06,2.06,0,0,1-.79-.9,3,3,0,0,1-.26-1.35,2.68,2.68,0,0,1,.6-1.87A2.17,2.17,0,0,1,62.13,26a2.15,2.15,0,0,1,1.65.67,2.86,2.86,0,0,1,.56,1.87m-3.74,0A2.16,2.16,0,0,0,61,29.92a1.54,1.54,0,0,0,2.25,0,2.29,2.29,0,0,0,.37-1.42,2.22,2.22,0,0,0-.37-1.42,1.33,1.33,0,0,0-1.12-.49,1.21,1.21,0,0,0-1.09.49,2,2,0,0,0-.41,1.42"/><polygon class="cls-1" points="70.18 30.97 69.43 30.97 69.43 25.05 67.33 25.05 67.33 24.38 72.24 24.38 72.24 25.05 70.14 25.05 70.14 30.97 70.18 30.97"/><path class="cls-1" d="M76.13,31,76,30.26h0A1.78,1.78,0,0,1,74.3,31a1.67,1.67,0,0,1-1.16-.37,1.44,1.44,0,0,1-.41-1.09c0-1,.79-1.5,2.4-1.57l.82,0v-.26a1.19,1.19,0,0,0-.26-.86,1,1,0,0,0-.79-.26,3.09,3.09,0,0,0-1.39.37l-.22-.56a2.86,2.86,0,0,1,.79-.3,3.42,3.42,0,0,1,.86-.11,1.89,1.89,0,0,1,1.31.37,1.55,1.55,0,0,1,.41,1.24V31Zm-1.69-.52a1.48,1.48,0,0,0,1.09-.37A1.44,1.44,0,0,0,75.95,29v-.45l-.75,0a3.1,3.1,0,0,0-1.27.26.79.79,0,0,0-.37.75.66.66,0,0,0,.26.6.69.69,0,0,0,.64.26"/><rect class="cls-1" x="78.23" y="23.97" width="0.75" height="7"/><path class="cls-1" d="M82.65,31a2.26,2.26,0,0,1-1.72-.67,2.6,2.6,0,0,1-.64-1.84,2.68,2.68,0,0,1,.6-1.87A2,2,0,0,1,82.46,26a1.87,1.87,0,0,1,1.46.6,2.26,2.26,0,0,1,.52,1.61v.49H81A1.8,1.8,0,0,0,81.49,30a1.5,1.5,0,0,0,1.16.45,4,4,0,0,0,1.57-.34v.67c-.26.11-.52.19-.75.26s-.49,0-.82,0m-.23-4.46a1.14,1.14,0,0,0-.94.37A1.8,1.8,0,0,0,81.08,28h2.58a1.78,1.78,0,0,0-.3-1.09,1.14,1.14,0,0,0-.94-.37"/><path class="cls-1" d="M89.09,31V27.79a1.23,1.23,0,0,0-.26-.9,1.2,1.2,0,0,0-.86-.3,1.41,1.41,0,0,0-1.12.41,2.19,2.19,0,0,0-.37,1.39V31h-.75V26h.6l.11.67h0a1.86,1.86,0,0,1,.64-.56A1.91,1.91,0,0,1,88,26a2,2,0,0,1,1.35.41,1.87,1.87,0,0,1,.45,1.39V31Z"/><path class="cls-1" d="M92.95,30.45a1.14,1.14,0,0,0,.37,0c.11,0,.22,0,.3-.07v.56a1.53,1.53,0,0,1-.37.11,1.68,1.68,0,0,1-.41,0c-.94,0-1.42-.49-1.42-1.5V26.63H90.7v-.37l.71-.3.3-1h.45V26h1.42v.56H92.16v2.88a.92.92,0,0,0,.23.67.62.62,0,0,0,.56.3"/></g></g></g></svg>