<svg xmlns="http://www.w3.org/2000/svg" xmlns:xlink="http://www.w3.org/1999/xlink" viewBox="0 0 122.6 34.27"><defs><style>.cls-1{fill:none;}.cls-2{clip-path:url(#clip-path);}.cls-3{fill:#fff;}</style><clipPath id="clip-path"><rect class="cls-1" width="122.6" height="34.27"/></clipPath></defs><title>benify</title><g id="Layer_2" data-name="Layer 2"><g id="WEBSITE"><g id="desktop"><g class="cls-2"><path class="cls-3" d="M21.33,29.66a26.3,26.3,0,0,1-3.91,1.2,3.56,3.56,0,0,1-.39-.39,2.24,2.24,0,0,1-.32-.43s2.17-.53,4.17-1.25a25.17,25.17,0,0,0,4.45-2.24,3,3,0,0,1,.11.45c0,.25.07.47.07.47a20.06,20.06,0,0,1-4.18,2.19Zm-6.4-9.07c-5.72,1.47-9,.67-9,.67s-.13-.78-.18-1.59c0-.4-.07-1.36-.07-1.36A20.74,20.74,0,0,0,14,17.78a18.14,18.14,0,0,0,8.27-4.36s.57.7.86,1.1,1,1.4,1,1.4a23.09,23.09,0,0,1-9.2,4.68Zm-8.53-8.3.22-1a10.58,10.58,0,0,0,2.37.1A20.06,20.06,0,0,0,11.55,11l.63,2.34A13.32,13.32,0,0,1,9,14a10.65,10.65,0,0,1-2.91-.17s.19-1,.3-1.49ZM25.27,7.47c.11-.39.19-.77.19-.77s1,.73,1.5,1.17S28.2,9.11,28.2,9.11s-.09.54-.18.9-.12.41-.25.79c0,0-.8-.83-1.42-1.36s-1.42-1.13-1.42-1.13a6.42,6.42,0,0,0,.34-.84Zm6.51,5.36a10.57,10.57,0,0,0-1-3.21,11.65,11.65,0,0,1-4.33,10.55,23.28,23.28,0,0,0-1.08-2.25c-.38-.68-.81-1.37-1.23-2a13.11,13.11,0,0,0,3.64-5.11,8.61,8.61,0,0,1,1.1,1.43s.25-.15.49-1.08a7.26,7.26,0,0,0-.18-4.3,14.05,14.05,0,0,0-1.65-2A16.24,16.24,0,0,0,23.72,2a6,6,0,0,1,1.79,4.41c0,.11,0,.21,0,.31l-.36-.23a16.78,16.78,0,0,0-5.18-2.11s-.35,3.32-5.86,5.74a16.75,16.75,0,0,1-2.52.88l-.62-2.36A11.42,11.42,0,0,1,8,9.08C6.7,9.1,4.75,9,4.63,6.76,4.54,5,6.45,3.13,6.45,3.13a24.8,24.8,0,0,0-2.24,2A16.89,16.89,0,0,0,1.93,8.37a2.29,2.29,0,0,0-.18,1.47,4.58,4.58,0,0,0,2.53,3.3,8.38,8.38,0,0,0,1.84.63A24.19,24.19,0,0,0,5.71,18c0,.09,0,.18,0,.27a8.7,8.7,0,0,1-2.95-1A5.88,5.88,0,0,1,.18,13.19a18.77,18.77,0,0,0,.6,8A18.22,18.22,0,0,0,3.39,26a12.41,12.41,0,0,0,6.42,1.93,21.45,21.45,0,0,0,5.35-.24,12,12,0,0,1-.6-1.23c-.08-.18-.2-.59-.23-.64a28.79,28.79,0,0,0,6.17-2,25.83,25.83,0,0,0,5.94-3.66s.12.27.31.78.41,1.14.41,1.14a22,22,0,0,1-5.29,3.46,30.76,30.76,0,0,1-6.68,2.14l.23.41A18.35,18.35,0,0,0,16.7,30c-.57.12-1.17.22-1.78.3a15.38,15.38,0,0,1-7.85-.9,17.73,17.73,0,0,0,9.73,2.73,18.17,18.17,0,0,0,8.35-2.84c.08-.05.41-.31.41-.31a8.11,8.11,0,0,0,0-1.19c0-.13,0-.24,0-.35a16.16,16.16,0,0,0,4.78-5,15.6,15.6,0,0,0,1.48-9.64Z"/><path class="cls-3" d="M17,2.19s1.25-.1,1.81-.12a23.62,23.62,0,0,1,2.68.08s-.36-.72-2.09-1.44A11.15,11.15,0,0,0,15.74,0a14.93,14.93,0,0,0-5.47,1.09,17,17,0,0,0-1.79.83,4.88,4.88,0,0,1,.58-.24,13.9,13.9,0,0,1,3-.72C15.7.41,17,2.19,17,2.19Z"/></g><path class="cls-3" d="M44.9,12.72a5,5,0,0,0-2.22.47v12a5.26,5.26,0,0,0,1.94.31c3,0,4.22-2.59,4.22-6.53s-1.37-6.28-3.94-6.28ZM44.43,27.9a11.69,11.69,0,0,1-5.53-1.22V3h3.78v8.09a7.45,7.45,0,0,1,3.19-.66c4.09,0,6.75,3.19,6.75,8.21,0,5.65-2.9,9.21-8.18,9.21Z"/><path class="cls-3" d="M62.55,12.66c-2.4,0-3.62,2.28-3.62,5.59v.34l6.93-1.09c0-3.06-1-4.84-3.31-4.84Zm-3.4,7.87c.28,2.94,1.94,4.68,4.72,4.68a9.48,9.48,0,0,0,4.15-1l.91,2.44a12.76,12.76,0,0,1-5.59,1.22c-5.09,0-7.9-3.53-7.9-8.81s2.69-8.71,7.25-8.71c4.37,0,6.84,2.87,6.84,8.12V19L59.14,20.53Z"/><path class="cls-3" d="M82.44,27.55V16c0-2.19-.87-3.25-3.22-3.25a6.1,6.1,0,0,0-2.47.44V27.55H72.95V11.63a16.17,16.17,0,0,1,6.28-1.22c4.9,0,7,2.06,7,5.65V27.55Z"/><path class="cls-3" d="M90.43,27.55V10.72h3.81V27.55Zm1.9-19.71a2,2,0,0,1-2.12-1.91,2.13,2.13,0,0,1,4.25,0,2,2,0,0,1-2.12,1.91Z"/><path class="cls-3" d="M103.21,13.13V27.55H99.4V13.13H97.52v-2.4H99.4V8.66c0-3.5,2-5.65,5.62-5.65a7,7,0,0,1,.94.06V5.48h-.31c-1.72,0-2.44,1.16-2.44,3.09v2.15H106v2.4Z"/><path class="cls-3" d="M114.79,34.27h-4l2.81-6.71-5.65-16.83H112l2.94,11.12a14,14,0,0,1,.37,2.37h.06a15.89,15.89,0,0,1,.47-2.37L119,10.72h3.62l-7.81,23.55Z"/></g></g></g></svg>