<svg xmlns="http://www.w3.org/2000/svg" xmlns:xlink="http://www.w3.org/1999/xlink" viewBox="0 0 139.83 27.11"><defs><style>.cls-1{fill:none;}.cls-2{fill:#fff;}.cls-3{clip-path:url(#clip-path);}</style><clipPath id="clip-path"><rect class="cls-1" width="139.82" height="27.11"/></clipPath></defs><title>cornerstone</title><g id="Layer_2" data-name="Layer 2"><g id="WEBSITE"><g id="desktop"><path class="cls-2" d="M34.55,9.14h0V7.7H30.68V21.27h4.06V13.81c0-2.05,1.32-2.45,3.2-2.49V7.23a3.34,3.34,0,0,0-3.4,1.91Z"/><path class="cls-2" d="M72.36,9.14h0V7.7H68.5V21.27h4.06V13.81c0-2.05,1.32-2.45,3.2-2.49V7.23a3.34,3.34,0,0,0-3.4,1.91Z"/><g class="cls-3"><path class="cls-2" d="M50.18,8.41a5.85,5.85,0,0,0-3.47-1.17A3.87,3.87,0,0,0,43,9.14h0V7.7H39.18V21.27h4.06V13.89c0-.83,0-2.84,2.32-2.84,2.13,0,2.13,1.86,2.13,2.81v7.41h4.06V12.79c0-2.67-.83-3.74-1.57-4.38Z"/><path class="cls-2" d="M129.61,13a3.2,3.2,0,0,1,6.16,0Zm10.22,1.66a7.14,7.14,0,1,0-7.09,7.07,6.6,6.6,0,0,0,3.86-1.22A8,8,0,0,0,139.37,17h-4.16a2.89,2.89,0,0,1-2.47,1.27,3,3,0,0,1-3.18-2.57h10.17a5.56,5.56,0,0,0,.1-1.08Z"/></g><path class="cls-2" d="M122.74,8.4a5.85,5.85,0,0,0-3.48-1.18,3.88,3.88,0,0,0-3.7,1.91h0V7.71h-3.8V21.28h4.06V13.89c0-.83,0-2.84,2.33-2.84,2.13,0,2.13,1.86,2.13,2.82v7.42h4.06v-8.5c0-2.67-.83-3.75-1.57-4.38Z"/><polygon class="cls-2" points="93.89 4.19 89.83 6.53 89.83 7.7 87.83 7.7 87.83 10.78 89.83 10.78 89.83 21.27 93.89 21.27 93.89 10.78 95.85 10.78 95.85 7.7 93.89 7.7 93.89 4.19 93.89 4.19"/><path class="cls-2" d="M82.5,12.84c-1.07-.32-2.07-.73-2.07-1.46,0-.37.29-.9,1.15-.9,1.2,0,1.24.73,1.27,1h4c-.34-3.56-3.42-4.27-5.2-4.27-2.81,0-5.25,1.78-5.25,4.46,0,1.83,1.46,3,3.22,3.54,2.59,1,3.59,1.12,3.59,2.17,0,.66-.73,1-1.42,1a1.44,1.44,0,0,1-1.54-1.24h-4c.37,3.56,3.46,4.49,5.51,4.49,3,0,5.51-1.76,5.51-4.61s-2.44-3.61-4.73-4.25Z"/><path class="cls-2" d="M103.18,17.89a3.31,3.31,0,0,1-3.26-3.43,3.26,3.26,0,1,1,6.51,0,3.31,3.31,0,0,1-3.26,3.43Zm0-10.65a7.1,7.1,0,0,0-7.32,7.22,7.32,7.32,0,0,0,14.64,0,7.1,7.1,0,0,0-7.32-7.22Z"/><path class="cls-2" d="M57,13a3.21,3.21,0,0,1,6.16,0Zm10.22,1.66a7.14,7.14,0,1,0-7.09,7.07A6.6,6.6,0,0,0,64,20.48,8,8,0,0,0,66.8,17H62.64a2.89,2.89,0,0,1-2.47,1.27A3,3,0,0,1,57,15.71H67.16a5.56,5.56,0,0,0,.1-1.08Z"/><path class="cls-2" d="M22.16,17.9a3.31,3.31,0,0,1-3.25-3.42,3.26,3.26,0,1,1,6.51,0,3.31,3.31,0,0,1-3.25,3.42Zm0-10.64a7.15,7.15,0,0,0-5,1.88V0L0,9.9V27.11l10.06-5.82A7.12,7.12,0,0,1,5,14.4,7.07,7.07,0,0,1,12.1,7.24a7.37,7.37,0,0,1,5,1.9,7.06,7.06,0,0,1,2.14,3.75H15.18A3.08,3.08,0,0,0,12.24,11,3.14,3.14,0,0,0,9,14.42a3.18,3.18,0,0,0,3.2,3.42A3.09,3.09,0,0,0,15.15,16h4.1a7.3,7.3,0,0,1-2.19,3.71,7.13,7.13,0,0,0,5.09,1.93,7.09,7.09,0,0,0,7.31-7.21,7.09,7.09,0,0,0-7.31-7.21Z"/></g></g></g></svg>