<svg xmlns="http://www.w3.org/2000/svg" viewBox="0 0 67.04 26.5"><defs><style>.cls-1{fill:#fff;}</style></defs><title>ibm</title><g id="Layer_2" data-name="Layer 2"><g id="WEBSITE"><g id="desktop"><rect class="cls-1" width="12.97" height="1.65"/><rect class="cls-1" y="3.55" width="12.97" height="1.65"/><rect class="cls-1" y="21.31" width="12.97" height="1.65"/><rect class="cls-1" x="3.71" y="17.76" width="5.56" height="1.65"/><rect class="cls-1" x="3.71" y="14.2" width="5.56" height="1.65"/><rect class="cls-1" x="3.71" y="10.65" width="5.56" height="1.65"/><rect class="cls-1" x="3.71" y="7.1" width="5.56" height="1.65"/><rect class="cls-1" y="24.86" width="12.97" height="1.65"/><rect class="cls-1" x="41.03" y="17.76" width="5.57" height="1.65"/><polygon class="cls-1" points="49.52 19.4 54.84 19.4 55.41 17.75 48.95 17.75 49.52 19.4"/><rect class="cls-1" x="41.03" y="14.2" width="5.57" height="1.65"/><polygon class="cls-1" points="48.3 15.85 56.06 15.85 56.63 14.2 47.73 14.2 48.3 15.85"/><polygon class="cls-1" points="51.41 10.65 41.03 10.65 41.03 12.3 46.61 12.3 46.61 10.94 47.08 12.3 51.97 12.3 51.41 10.65"/><polygon class="cls-1" points="52.95 10.65 52.39 12.3 57.27 12.3 57.75 10.92 57.75 12.3 63.32 12.3 63.32 10.65 52.95 10.65"/><polygon class="cls-1" points="50.21 7.1 41.03 7.1 41.03 8.75 50.77 8.75 50.21 7.1"/><rect class="cls-1" x="57.75" y="17.76" width="5.57" height="1.65"/><rect class="cls-1" x="57.75" y="14.2" width="5.57" height="1.65"/><polygon class="cls-1" points="54.15 7.1 53.58 8.75 63.32 8.75 63.32 7.1 54.15 7.1"/><rect class="cls-1" x="57.75" y="24.86" width="9.29" height="1.65"/><rect class="cls-1" x="37.32" y="24.86" width="9.29" height="1.65"/><polygon class="cls-1" points="51.95 26.5 52.4 26.5 52.97 24.86 51.38 24.86 51.95 26.5"/><rect class="cls-1" x="57.75" y="21.31" width="9.29" height="1.65"/><rect class="cls-1" x="37.32" y="21.31" width="9.29" height="1.65"/><polygon class="cls-1" points="50.73 22.95 53.62 22.95 54.19 21.31 50.16 21.31 50.73 22.95"/><polygon class="cls-1" points="56.54 0 55.98 1.65 67.04 1.65 67.04 0 56.54 0"/><polygon class="cls-1" points="47.81 0 37.32 0 37.32 1.65 48.37 1.65 47.81 0"/><polygon class="cls-1" points="55.34 3.55 54.78 5.2 67.04 5.2 67.04 3.55 55.34 3.55"/><polygon class="cls-1" points="49.01 3.55 37.32 3.55 37.32 5.2 49.57 5.2 49.01 3.55"/><rect class="cls-1" x="18.64" y="7.1" width="5.57" height="1.65"/><rect class="cls-1" x="18.64" y="17.76" width="5.57" height="1.65"/><path class="cls-1" d="M14.92,1.65H33.21C31.55.29,29.1,0,26.54,0H14.92Z"/><path class="cls-1" d="M14.92,3.55H34.77a6.05,6.05,0,0,1,.66,1.65H14.92Z"/><path class="cls-1" d="M18.64,14.2h14.2a6.88,6.88,0,0,1,1.67,1.65H18.64Z"/><path class="cls-1" d="M29.78,7.1h5.87a5.63,5.63,0,0,1-.27,1.65h-5.6Z"/><path class="cls-1" d="M29.78,17.76h5.63a4.85,4.85,0,0,1,.29,1.65H29.78Z"/><path class="cls-1" d="M14.92,21.31H35.54A6.31,6.31,0,0,1,34.87,23H14.92Z"/><path class="cls-1" d="M14.92,24.86h18.3c-1.61,1.27-3.82,1.65-6.38,1.65H14.92Z"/><path class="cls-1" d="M18.64,12.3H32.84a7.28,7.28,0,0,0,1.63-1.65H18.64Z"/></g></g></g></svg>