<svg xmlns="http://www.w3.org/2000/svg" viewBox="0 0 103.32 13.07"><defs><style>.cls-1{fill:#fff;}</style></defs><title>oracle</title><g id="Layer_2" data-name="Layer 2"><g id="WEBSITE"><g id="desktop"><path class="cls-1" d="M43.37,8.5H50L46.51,2.85,40.07,13.06H37.13L45,.8a1.87,1.87,0,0,1,3,0l7.87,12.29H52.95l-1.38-2.28H44.84Zm30.46,2.28V.12H71.34v11.7a1.22,1.22,0,0,0,.36.86,1.29,1.29,0,0,0,.91.37H84l1.46-2.28ZM32.67,8.88A4.38,4.38,0,0,0,37,3.59,4.48,4.48,0,0,0,32.5.12H21.78V13.06h2.49V2.41H32.4A2.16,2.16,0,0,1,34.53,4a2.1,2.1,0,0,1-2,2.62h-7l7.42,6.47h3.62l-5-4.19ZM6.47,13.06A6.47,6.47,0,0,1,0,5.79,6.63,6.63,0,0,1,6.72.12h7a6.63,6.63,0,0,1,6.67,5.67A6.47,6.47,0,0,1,14,13.07Zm7.35-2.28a4.2,4.2,0,0,0,4.11-5.05,4.29,4.29,0,0,0-4.26-3.33H6.79A4.29,4.29,0,0,0,2.53,5.73a4.2,4.2,0,0,0,4.11,5.05Zm47.25,2.28a6.47,6.47,0,0,1-6.42-7.27A6.64,6.64,0,0,1,61.32.12H70L68.54,2.41H61.39a4.29,4.29,0,0,0-4.26,3.33,4.2,4.2,0,0,0,4.11,5.05h9l-1.46,2.28Zm30.44-2.28a4.19,4.19,0,0,1-4-3H98.11l1.47-2.28H87.48a4.19,4.19,0,0,1,4-3.05h7.3L100.27.12H91.59a6.63,6.63,0,0,0-6.67,5.67,6.47,6.47,0,0,0,6.42,7.27H99l1.46-2.28Z"/><path class="cls-1" d="M100.72,2.39a1.14,1.14,0,1,1,1.14,1.14A1.14,1.14,0,0,1,100.72,2.39Zm1.14,1.46a1.45,1.45,0,1,0-1.45-1.45A1.46,1.46,0,0,0,101.87,3.85Zm-.14-2.32a1.16,1.16,0,0,1,.43,0,.46.46,0,0,1,.31.46.87.87,0,0,1,0,.13.45.45,0,0,1-.2.28l-.08,0,.38.68h-.37l-.33-.62h-.22v.62h-.32V1.53Zm.11.74a.31.31,0,0,0,.27-.1.23.23,0,0,0,0-.14.22.22,0,0,0-.12-.2.84.84,0,0,0-.3,0h-.09v.47Z"/></g></g></g></svg>