<svg xmlns="http://www.w3.org/2000/svg" viewBox="0 0 78.44 36.55"><defs><style>.cls-1{fill:#fff;}</style></defs><title>oracle-mobile</title><g id="Layer_2" data-name="Layer 2"><g id="WEBSITE"><g id="tablet"><path class="cls-1" d="M33.6,6.27h4.9L35.9,2.1,31.16,9.63H29l5.79-9A1.37,1.37,0,0,1,37,.57l5.79,9.06H40.65l-1-1.69h-5L33.6,6.27"/><path class="cls-1" d="M56.05,7.94V.09H54.22V8.72a.91.91,0,0,0,.27.63,1,1,0,0,0,.67.28h8.36L64.6,7.94H56.05"/><path class="cls-1" d="M25.7,6.54a3.23,3.23,0,0,0,0-6.45h-8V9.63h1.84V1.78h6.07a1.54,1.54,0,0,1,0,3.08H20.41l5.48,4.77h2.66L24.86,6.54h.84"/><path class="cls-1" d="M11.81,8a3.09,3.09,0,0,0,0-6.18H6.51A3.09,3.09,0,0,0,6.51,8h5.3M6.38,9.63a4.77,4.77,0,1,1,0-9.54h5.55a4.77,4.77,0,0,1,0,9.54H6.38"/><path class="cls-1" d="M46.65,9.63a4.77,4.77,0,1,1,0-9.54h6.59L52.15,1.78H46.76a3.09,3.09,0,0,0,0,6.18h6.61L52.31,9.63H46.65"/><path class="cls-1" d="M69.08,8a3.09,3.09,0,0,1-3-2.25h7.84L75,4H66.11a3.09,3.09,0,0,1,3-2.25h5.38L75.54.09H69a4.77,4.77,0,1,0,0,9.54h5.66L75.7,8H69.08"/><path class="cls-1" d="M77.36,1a.22.22,0,0,0,.19-.08.12.12,0,0,0,0-.1.18.18,0,0,0-.09-.15.62.62,0,0,0-.23,0h-.06V1h.15M77.26.48a1.11,1.11,0,0,1,.32,0,.35.35,0,0,1,.23.34s0,.05,0,.1a.34.34,0,0,1-.15.21l0,0,.28.5h-.27l-.25-.46h-.16v.46H77V.48h.3m.11,1.7a1.06,1.06,0,0,0,1.07-1.07,1.07,1.07,0,1,0-1.07,1.07m-.85-1.07a.85.85,0,1,1,.85.84.84.84,0,0,1-.85-.84"/><polygon class="cls-1" points="0.01 15 77.09 15 77.09 14.47 0.01 14.47 0.01 15 0.01 15"/><polygon class="cls-1" points="0 19.85 1.33 19.85 1.33 22.33 3.68 22.33 3.68 19.85 5.03 19.85 5.03 26.06 3.69 26.06 3.69 23.34 1.33 23.34 1.33 26.06 0 26.06 0 19.85 0 19.85"/><path class="cls-1" d="M8.15,19.87v3.78c0,.68.05,1.53,1.35,1.53a1.38,1.38,0,0,0,1.2-.54,1.76,1.76,0,0,0,.2-1.06V19.87h1.3v3.88a2.42,2.42,0,0,1-2.72,2.44,2.69,2.69,0,0,1-2.34-1.07,2.64,2.64,0,0,1-.32-1.53V19.87Z"/><polygon class="cls-1" points="13.97 19.85 16.15 19.85 17.46 24.37 18.88 19.85 20.99 19.85 20.99 26.06 19.67 26.06 19.67 20.73 17.98 26.06 16.88 26.06 15.22 20.73 15.22 26.06 13.97 26.06 13.97 19.85 13.97 19.85"/><path class="cls-1" d="M26.09,23.72l-.86-2.65-.92,2.65Zm0-3.87,2.16,6.21H26.87l-.45-1.34H24l-.46,1.34H22.23l2.24-6.21Z"/><polygon class="cls-1" points="29.54 19.85 31.47 19.85 33.8 24.74 33.8 19.85 35.03 19.85 35.03 26.06 33.2 26.06 30.8 20.91 30.8 26.06 29.54 26.06 29.54 19.85 29.54 19.85"/><path class="cls-1" d="M42.78,21.88c0-.21-.1-1.09-1-1.09s-1.4,1-1.4,2.31c0,.37,0,2.13,1.3,2.13a1.09,1.09,0,0,0,1.12-1.18h1.4a2.13,2.13,0,0,1-.56,1.46,2.44,2.44,0,0,1-1.81.7c-2.14,0-2.84-1.58-2.84-3.12,0-2,1.1-3.27,2.84-3.27a2.09,2.09,0,0,1,2.31,2.06Z"/><path class="cls-1" d="M48.85,23.72,48,21.07l-.92,2.65Zm0-3.87L51,26.06H49.63l-.45-1.34H46.73l-.46,1.34H45l2.24-6.21Z"/><path class="cls-1" d="M53.59,22.66h.53c.43,0,1.23,0,1.23-.95s-.71-.84-1.09-.84h-.67v1.79Zm-1.31-2.79h1.92a2.55,2.55,0,0,1,2.16.68,1.77,1.77,0,0,1,.38,1.16,1.92,1.92,0,0,1-.79,1.65,2.68,2.68,0,0,1-1.41.29h-.9v2.41H52.27v-6.2Z"/><polygon class="cls-1" points="58.04 19.83 59.37 19.83 59.37 26.06 58.04 26.06 58.04 19.83 58.04 19.83"/><polygon class="cls-1" points="62.45 20.88 60.61 20.88 60.61 19.85 65.64 19.85 65.64 20.88 63.8 20.88 63.8 26.06 62.45 26.06 62.45 20.88 62.45 20.88"/><path class="cls-1" d="M69.64,23.72l-.86-2.65-.92,2.65Zm0-3.87,2.16,6.21H70.42L70,24.72H67.52l-.46,1.34H65.78L68,19.85Z"/><polygon class="cls-1" points="73.08 19.86 74.43 19.86 74.43 25.01 77.1 25.01 77.1 26.06 73.08 26.06 73.08 19.86 73.08 19.86"/><polygon class="cls-1" points="4.1 30.2 6.28 30.2 7.59 34.72 9.01 30.2 11.12 30.2 11.12 36.41 9.8 36.41 9.8 31.08 8.11 36.41 7.01 36.41 5.35 31.08 5.35 36.41 4.1 36.41 4.1 30.2 4.1 30.2"/><path class="cls-1" d="M16.22,34.06l-.86-2.65-.92,2.65Zm0-3.87,2.16,6.21H17l-.45-1.34H14.1l-.46,1.34H12.36L14.6,30.2Z"/><polygon class="cls-1" points="19.67 30.2 21.6 30.2 23.93 35.09 23.93 30.2 25.16 30.2 25.16 36.41 23.33 36.41 20.93 31.25 20.93 36.41 19.67 36.41 19.67 30.2 19.67 30.2"/><path class="cls-1" d="M30.26,34.06l-.86-2.65-.92,2.65Zm0-3.87,2.16,6.21H31l-.45-1.34H28.14l-.46,1.34H26.4l2.24-6.21Z"/><path class="cls-1" d="M37.66,32.1a1.17,1.17,0,0,0-.17-.63,1.19,1.19,0,0,0-1-.48c-1.51,0-1.81,1.41-1.81,2.36A2.51,2.51,0,0,0,35.15,35a1.77,1.77,0,0,0,1.46.53,3,3,0,0,0,1-.12V34.13h-1.2v-1H39v3.1a6.4,6.4,0,0,1-2.27.34A3.47,3.47,0,0,1,34,35.72a3.23,3.23,0,0,1-.82-2.32A3.08,3.08,0,0,1,36.48,30a2.8,2.8,0,0,1,2.11.78A1.89,1.89,0,0,1,39,32.1Z"/><polygon class="cls-1" points="40.76 30.2 44.92 30.2 44.92 31.21 42.09 31.21 42.09 32.69 44.74 32.69 44.74 33.7 42.09 33.7 42.09 35.38 45.02 35.38 45.02 36.41 40.76 36.41 40.76 30.2 40.76 30.2"/><polygon class="cls-1" points="46.52 30.2 48.69 30.2 50.01 34.72 51.42 30.2 53.54 30.2 53.54 36.41 52.22 36.41 52.22 31.08 50.52 36.41 49.42 36.41 47.77 31.08 47.77 36.41 46.52 36.41 46.52 30.2 46.52 30.2"/><polygon class="cls-1" points="55.34 30.2 59.5 30.2 59.5 31.21 56.68 31.21 56.68 32.69 59.32 32.69 59.32 33.7 56.68 33.7 56.68 35.38 59.6 35.38 59.6 36.41 55.34 36.41 55.34 30.2 55.34 30.2"/><polygon class="cls-1" points="61.18 30.2 63.1 30.2 65.43 35.09 65.43 30.2 66.67 30.2 66.67 36.41 64.84 36.41 62.43 31.25 62.43 36.41 61.18 36.41 61.18 30.2 61.18 30.2"/><polygon class="cls-1" points="69.81 31.23 67.96 31.23 67.96 30.2 72.99 30.2 72.99 31.23 71.15 31.23 71.15 36.41 69.81 36.41 69.81 31.23 69.81 31.23"/></g></g></g></svg>