<svg xmlns="http://www.w3.org/2000/svg" viewBox="0 0 148.84 17.44"><defs><style>.cls-1{fill:#fff;}</style></defs><title>sap-sucess-factors</title><g id="Layer_2" data-name="Layer 2"><g id="WEBSITE"><g id="desktop"><path class="cls-1" d="M140.24,17.44l-3-3c-3-3-5.62-5.6-5.62-8.83A5.38,5.38,0,0,1,137.14,0a5.21,5.21,0,0,1,3.11,1,5.21,5.21,0,0,1,3.11-1,5.38,5.38,0,0,1,5.49,5.64c0,3.23-2.61,5.83-5.62,8.83l-3,3Z"/><path class="cls-1" d="M122.43,12.61l.84-1.18a3.87,3.87,0,0,0,2.42.9c.65,0,1.11-.22,1.11-.68s-.37-.67-1.32-.84c-1.32-.24-2.73-.55-2.73-2.18,0-1.4,1.15-2.21,2.7-2.21a4.49,4.49,0,0,1,3.06,1l-.82,1.19a3.72,3.72,0,0,0-2.05-.76c-.6,0-.94.24-.94.61s.38.59,1.24.75c1.37.23,2.82.55,2.82,2.13s-1.46,2.35-3.07,2.35a4.8,4.8,0,0,1-3.25-1.07Zm-4.83.93v-7h2.1V7.74h0a2.64,2.64,0,0,1,2.35-1.31h.06l0,1.87-.55,0a2.33,2.33,0,0,0-1.85,1v4.32Zm-3.32-3.46c0-1.16-.4-2.1-1.45-2.1s-1.46.85-1.46,2.1.39,2.13,1.46,2.13,1.45-.86,1.45-2.13Zm-5,0a3.56,3.56,0,1,1,7.12,0,3.56,3.56,0,1,1-7.12,0Zm-4.51,1.52V8.1H103.6V6.58h1.16V4.19h2.09V6.58h1.79V8.1h-1.79v3c0,.74.21,1,1,1a2.57,2.57,0,0,0,.69-.08v1.5a10.14,10.14,0,0,1-1.39.1c-2.06,0-2.36-.75-2.36-2.05Zm-8.19-1.52a3.33,3.33,0,0,1,3.51-3.63,2.88,2.88,0,0,1,3,2.13l-1.76.59c-.27-.89-.68-1.18-1.29-1.18-.85,0-1.39.72-1.39,2.1s.39,2.13,1.36,2.13c.56,0,1.07-.3,1.37-1.24l1.74.6A3.14,3.14,0,0,1,100,13.68a3.26,3.26,0,0,1-3.42-3.62Zm-3.2,1.4V10.17c-1.66.17-2.36.59-2.36,1.23,0,.44.31.67.77.67a2.16,2.16,0,0,0,1.6-.6Zm-4.42.3c0-1.61,1.36-2.5,4.42-2.74V8.85c0-.51-.26-.84-.94-.84a3.71,3.71,0,0,0-2.29.86l-.89-1.2a4.89,4.89,0,0,1,3.47-1.24c1.91,0,2.69.94,2.69,2.73v2.68a4.77,4.77,0,0,0,.19,1.7H93.52a3.32,3.32,0,0,1-.16-1,3.08,3.08,0,0,1-2.43,1.12,1.86,1.86,0,0,1-2-1.88ZM83,13.54V3.87h6.39V5.65H85.17V8h3V9.69h-3v3.85Zm-7.6-.93.84-1.18a3.86,3.86,0,0,0,2.42.9c.65,0,1.11-.22,1.11-.68s-.37-.67-1.32-.84c-1.32-.24-2.73-.55-2.73-2.18,0-1.4,1.15-2.21,2.7-2.21a4.48,4.48,0,0,1,3.06,1L80.69,8.6a3.72,3.72,0,0,0-2-.76c-.6,0-.94.24-.94.61s.38.59,1.24.75c1.37.23,2.82.55,2.82,2.13s-1.46,2.35-3.07,2.35a4.79,4.79,0,0,1-3.25-1.07Zm-7,0,.84-1.18a3.86,3.86,0,0,0,2.42.9c.65,0,1.11-.22,1.11-.68s-.37-.67-1.32-.84c-1.32-.24-2.73-.55-2.73-2.18,0-1.4,1.15-2.21,2.7-2.21a4.48,4.48,0,0,1,3.06,1L73.71,8.6a3.72,3.72,0,0,0-2-.76c-.6,0-.94.24-.94.61S71.1,9,72,9.2c1.37.23,2.82.55,2.82,2.13s-1.46,2.35-3.07,2.35a4.8,4.8,0,0,1-3.25-1.07ZM66,9.39c-.1-1-.55-1.45-1.33-1.45s-1.22.43-1.37,1.45Zm-4.82.68a3.42,3.42,0,0,1,3.5-3.63c1.44,0,3.2.72,3.2,3.88v.31H63.28a1.51,1.51,0,0,0,1.62,1.59A3.2,3.2,0,0,0,67,11.38l.81,1.25a4.5,4.5,0,0,1-3,1,3.27,3.27,0,0,1-3.55-3.62Zm-7,0a3.32,3.32,0,0,1,3.5-3.62,2.87,2.87,0,0,1,3,2.12l-1.76.59C58.64,8.28,58.24,8,57.62,8c-.85,0-1.38.72-1.38,2.1s.39,2.12,1.36,2.12c.56,0,1.07-.3,1.37-1.24l1.73.6a3.13,3.13,0,0,1-3.14,2.11,3.25,3.25,0,0,1-3.41-3.61Zm-7.26,0A3.33,3.33,0,0,1,50.4,6.43a2.88,2.88,0,0,1,3,2.13l-1.76.59C51.4,8.26,51,8,50.38,8c-.85,0-1.39.72-1.39,2.1s.39,2.13,1.36,2.13c.56,0,1.07-.3,1.37-1.24l1.74.6a3.14,3.14,0,0,1-3.15,2.12,3.26,3.26,0,0,1-3.42-3.62Zm-7.67,1.59V6.58h2.1V11c0,.63.24,1,.82,1a2.37,2.37,0,0,0,1.52-.71V6.58h2.1v7h-2.1V12.46a3,3,0,0,1-2.4,1.23,1.83,1.83,0,0,1-2-2Zm-9-.31,1.61-1A2.86,2.86,0,0,0,34.43,12c1,0,1.69-.37,1.69-1.11s-.69-1-2-1.4c-1.72-.48-3.53-.93-3.53-3,0-1.8,1.41-2.89,3.49-2.89a4.35,4.35,0,0,1,3.84,2L36.48,6.8a2.88,2.88,0,0,0-2.38-1.37c-.9,0-1.4.39-1.4,1,0,.77.72,1,2,1.4,1.7.46,3.5,1,3.5,3,0,1.55-1.17,2.94-3.86,2.94a4.33,4.33,0,0,1-4.12-2.38ZM20.43,8.46h1.45c1.32,0,1.82-.51,1.82-1.44s-.48-1.41-1.82-1.41H20.43V8.46Zm-2.12,5.08V3.87h3.52c2.06,0,3.94.55,3.94,3.1s-2,3.14-4,3.14H20.43v3.44ZM11.6,9.84h2.28L12.76,6.55h0L11.6,9.84Zm-3.23,3.7,3.42-9.71h2l3.42,9.71H15.09l-.72-2.16H11.08l-.75,2.16ZM0,11.34l1.61-1A2.86,2.86,0,0,0,4.22,12c1,0,1.69-.37,1.69-1.11s-.69-1-2-1.4C2.22,9,.42,8.6.42,6.58c0-1.8,1.41-2.89,3.49-2.89a4.35,4.35,0,0,1,3.84,2L6.27,6.8A2.88,2.88,0,0,0,3.89,5.43c-.9,0-1.4.39-1.4,1,0,.77.72,1,2,1.4,1.7.46,3.5,1,3.5,3,0,1.55-1.17,2.94-3.86,2.94A4.33,4.33,0,0,1,0,11.34Z"/></g></g></g></svg>