<svg xmlns="http://www.w3.org/2000/svg" viewBox="0 0 57.62 28.5"><defs><style>.cls-1{fill:#fff;fill-rule:evenodd;}</style></defs><title>sap</title><g id="Layer_2" data-name="Layer 2"><g id="WEBSITE"><g id="desktop"><path class="cls-1" d="M21.07,10.91l-1.8,5.67a5.18,5.18,0,0,0,1.82.32,5.33,5.33,0,0,0,1.78-.3L21.1,10.91ZM34.53,9.07H33.28v4.57h1.25c1.67,0,3-.55,3-2.32s-1.33-2.26-3-2.26Zm.58,8.47H33.28V23h-8.4L24,20.38a9.52,9.52,0,0,1-3,.45,9.4,9.4,0,0,1-3-.48L17.19,23H12l.57-1.52-.21.18a7.74,7.74,0,0,1-4.88,1.64H7.23A13.1,13.1,0,0,1,.81,21.58L2.56,18.1a7.84,7.84,0,0,0,4.7,1.34,2.49,2.49,0,0,0,1.83-.57A1.33,1.33,0,0,0,9.46,18c0-.9-1.27-1.33-2.84-1.82A13.25,13.25,0,0,1,2.75,14.4a4.44,4.44,0,0,1-1.95-4A4.79,4.79,0,0,1,2.16,7.13,7.8,7.8,0,0,1,7.84,5.06h0a15.34,15.34,0,0,1,6.43,1.52L12.3,10A9.27,9.27,0,0,0,8.15,8.89c-1.7-.09-2.56.52-2.57,1.17s1.61,1.52,3.13,2c2.31.74,5.26,1.72,5.71,4.56L18.66,5.36h4.91l5,13.49V5.36H34.2c5.42,0,8,1.93,8,6.14,0,3.78-2.62,6-7.05,6ZM0,0V28.5H29.12L57.62,0Z"/></g></g></g></svg>