<svg xmlns="http://www.w3.org/2000/svg" viewBox="0 0 73 29.36"><defs><style>.cls-1{fill:#fff;}</style></defs><title>workday</title><g id="Layer_2" data-name="Layer 2"><g id="WEBSITE"><g id="tablet"><path class="cls-1" d="M21.11,13.48a18.44,18.44,0,0,1,33.94,0h0a1.16,1.16,0,0,0,2.25-.39,1.14,1.14,0,0,0-.08-.44h0a20.81,20.81,0,0,0-38.28,0,1.13,1.13,0,0,0-.08.44,1.16,1.16,0,0,0,2.25.39Z"/><path class="cls-1" d="M10.66,25.49a.45.45,0,0,1-.49.32H8.62c-.25,0-.38-.07-.44-.32L6.71,20a15.23,15.23,0,0,1-.3-1.84A11.57,11.57,0,0,1,6.12,20L4.66,25.49a.44.44,0,0,1-.49.32H2.6c-.25,0-.38-.07-.44-.32L0,17.63a.32.32,0,0,1,.34-.43h0a1.78,1.78,0,0,1,1.73,1.36l1.12,4.61a16.11,16.11,0,0,1,.25,1.91c.11-.59.19-1.28.36-1.89l1.51-5.65a.47.47,0,0,1,.51-.34H7.05a.51.51,0,0,1,.53.36l1.53,5.63a14.65,14.65,0,0,1,.34,1.89c.08-.59.17-1.28.3-1.89L11,17.54a.46.46,0,0,1,.51-.34h.93a.31.31,0,0,1,.34.41l-2.12,7.88Z"/><path class="cls-1" d="M18.91,18.25c-1.46,0-2.27,1.05-2.27,3.2s.81,3.26,2.27,3.26,2.27-1.06,2.27-3.26-.81-3.2-2.27-3.2Zm0,7.64c-2.46,0-4.07-1.69-4.07-4.44s1.61-4.4,4.07-4.4,4,1.66,4,4.4-1.57,4.44-4,4.44Z"/><path class="cls-1" d="M30.89,18.41a.44.44,0,0,1-.62.32,5.6,5.6,0,0,0-1.19-.2c-.61,0-1.44.7-1.44,2.25v4.66a.42.42,0,0,1-.44.36H26.4a.42.42,0,0,1-.44-.36v-7.9a.41.41,0,0,1,.44-.36h.49a.43.43,0,0,1,.45.27l.3,1A2.91,2.91,0,0,1,30,17.05c.68,0,1.21.27,1.1.63l-.21.73Z"/><path class="cls-1" d="M47,18.24a1.57,1.57,0,0,0-1.42.7,4.7,4.7,0,0,0-.53,2.54c0,2.29.59,3.22,1.93,3.22s2.08-1,2.08-3.19-.76-3.27-2.06-3.27Zm3.22,7.5h-.44c-.32,0-.49-.11-.55-.36l-.17-.72a2.73,2.73,0,0,1-2.48,1.21c-2.18,0-3.33-1.49-3.33-4.38a4.62,4.62,0,0,1,1-3.47,3.19,3.19,0,0,1,2.37-1,3.14,3.14,0,0,1,.83.1,1.27,1.27,0,0,0,1.55-1.27V13.47a.4.4,0,0,1,.45-.36h.76a.4.4,0,0,1,.45.36V25.38a.42.42,0,0,1-.45.36Z"/><path class="cls-1" d="M40.63,25.81H39.33a.63.63,0,0,1-.51-.3l-1-1.27a1.27,1.27,0,0,0-2.26.78v.44a.42.42,0,0,1-.45.36h-.76a.42.42,0,0,1-.44-.36V13.52a.4.4,0,0,1,.44-.36h.76a.41.41,0,0,1,.45.36v4.39a1.27,1.27,0,0,0,2.21.85l1.16-1.28a.64.64,0,0,1,.55-.27h1.14c.3,0,.4.25.23.43L38.1,20.39A1.27,1.27,0,0,0,38,22.11l2.82,3.27c.15.18.06.43-.23.43Z"/><path class="cls-1" d="M63.19,17.56c-.09-.19.13-.35.38-.35h1a.56.56,0,0,1,.56.35l2,5.2a5.38,5.38,0,0,1,.22.9c.07-.26.2-.78.36-1.22l1.59-4.9a.5.5,0,0,1,.54-.34h1c.24,0,.45.16.38.35L67.86,27a3.39,3.39,0,0,1-2.1,2.15l-.47.17a.51.51,0,0,1-.58-.16l-.31-.49a.39.39,0,0,1,.22-.5l.33-.12a2.85,2.85,0,0,0,1.57-1.85,1.31,1.31,0,0,0,0-.94l-3.3-7.71Z"/><path class="cls-1" d="M57.48,24.68c-1.47,0-2.1-1-2.1-3.22s.63-3.2,2.1-3.2,2.16,1.05,2.16,3.2-.69,3.22-2.16,3.22Zm0-7.62c-2.46,0-3.9,1.67-3.9,4.4s1.48,4.41,3.78,4.41h0a2.46,2.46,0,0,0,2.24-1.22l.17.74c.06.25.23.36.55.36h.44a.42.42,0,0,0,.45-.36V21.44h0c0-2.74-1.27-4.38-3.74-4.38Z"/><path class="cls-1" d="M71.67,24.5h.15a.36.36,0,0,0,.2,0,.15.15,0,0,0,.06-.14.17.17,0,0,0-.07-.14.39.39,0,0,0-.21,0h-.14v.37Zm.19-.57a.75.75,0,0,1,.41.09.31.31,0,0,1,.14.28.33.33,0,0,1-.07.22.38.38,0,0,1-.21.12l.29.57h-.35l-.24-.52h-.15v.52h-.31V23.93Zm-.39-.23a.88.88,0,0,0-.31.2,1,1,0,0,0-.22.32.94.94,0,0,0-.08.37,1,1,0,0,0,.07.37,1,1,0,0,0,.21.31,1,1,0,0,0,.32.22.93.93,0,0,0,.37.08,1,1,0,0,0,.36-.07,1,1,0,0,0,.32-.21.94.94,0,0,0,.21-.31.92.92,0,0,0,.07-.36,1,1,0,0,0-.07-.38,1,1,0,0,0-.52-.53,1,1,0,0,0-.38-.07.93.93,0,0,0-.37.07Zm.81-.17a1.2,1.2,0,0,1,.38.26,1.12,1.12,0,0,1,.24.37,1.16,1.16,0,0,1,.09.44,1.11,1.11,0,0,1-.09.45,1.07,1.07,0,0,1-.25.37,1.24,1.24,0,0,1-.38.25,1.14,1.14,0,0,1-.44.09,1.17,1.17,0,0,1-.44-.09A1.22,1.22,0,0,1,71,25.4a1.14,1.14,0,0,1-.24-.37,1.12,1.12,0,0,1-.09-.44,1.25,1.25,0,0,1,0-.31,1.23,1.23,0,0,1,.13-.29,1.15,1.15,0,0,1,.41-.41,1.18,1.18,0,0,1,1-.06Z"/></g></g></g></svg>